<?xml version="1.0" encoding="UTF-8"?>
<!DOCTYPE svg PUBLIC "-//W3C//DTD SVG 1.1//EN" "http://www.w3.org/Graphics/SVG/1.1/DTD/svg11.dtd">
<!-- Creator: CorelDRAW 2021 (64-Bit) -->
<svg xmlns="http://www.w3.org/2000/svg" xml:space="preserve" width="27.508mm" height="33.812mm" version="1.1" style="shape-rendering:geometricPrecision; text-rendering:geometricPrecision; image-rendering:optimizeQuality; fill-rule:evenodd; clip-rule:evenodd"
viewBox="0 0 2750.8 3381.2"
 xmlns:xlink="http://www.w3.org/1999/xlink"
 xmlns:xodm="http://www.corel.com/coreldraw/odm/2003">
 <defs>
  <style type="text/css">
   <![CDATA[
    .fil1 {fill:#2C356E}
    .fil0 {fill:#656FA2}
    .fil3 {fill:#9AA6D6}
    .fil2 {fill:#9AA6D6;fill-rule:nonzero}
   ]]>
  </style>
 </defs>
 <g id="Layer_x0020_1">
  <metadata id="CorelCorpID_0Corel-Layer"/>
  <path class="fil0" d="M372.89 2.73l1995.69 0c208.49,0 377.56,169.07 377.56,377.56l0 2626.08c0,208.48 -169.07,377.55 -377.56,377.55l-1995.69 0.01c-208.48,-0.01 -377.55,-169.08 -377.55,-377.57l-0.01 -2626.07c0.01,-208.49 169.08,-377.56 377.57,-377.56z"/>
  <path class="fil1" d="M1055.55 340.61l202.51 0c0,-62.24 50.44,-112.69 112.68,-112.69 62.24,0 112.68,50.45 112.68,112.69l202.5 0c45.52,0 82.75,37.23 82.75,82.75 0,45.53 -37.23,82.76 -82.75,82.76l-630.37 0c-45.52,0 -82.75,-37.23 -82.75,-82.76 0,-45.52 37.23,-82.75 82.75,-82.75z"/>
  <g id="_1715426913136">
   <path class="fil2" d="M2330.1 696.7c13.21,0 23.88,10.67 23.88,23.88l0 26.65c1.2,0.15 2.32,0.3 3.51,0.52 0.3,0.08 0.52,0.08 0.82,0.15l35.83 6.57c12.99,2.39 21.57,14.85 19.18,27.76 -2.39,12.92 -14.85,21.58 -27.76,19.19l-35.46 -6.5c-23.36,-3.43 -43.96,-1.12 -58.44,4.63 -14.48,5.75 -20.3,13.66 -21.64,20.97 -1.5,7.99 -0.38,12.47 0.89,15.23 1.35,2.91 4.11,6.19 9.56,9.85 12.16,7.99 30.82,13.21 55,19.63l2.17 0.6c21.34,5.67 47.47,12.54 66.87,25.23 10.6,6.94 20.6,16.34 26.8,29.48 6.34,13.36 7.69,28.29 4.78,44.18 -5.15,28.37 -24.71,47.32 -48.97,57.25 -10.22,4.18 -21.34,6.87 -33.14,8.21l0 24.93c0,13.21 -10.67,23.88 -23.88,23.88 -13.21,0 -23.88,-10.67 -23.88,-23.88l0 -26.05c-0.3,-0.07 -0.68,-0.07 -0.97,-0.15l-0.15 0c0,0 0,0 0,0 -18.22,-2.83 -48.14,-10.67 -68.3,-19.63 -12.01,-5.37 -17.46,-19.48 -12.09,-31.49 5.38,-12.02 19.48,-17.47 31.5,-12.1 15.6,6.95 41.27,13.81 56.13,16.13 23.81,3.5 43.44,1.49 56.72,-3.96 12.61,-5.15 18.36,-12.61 20,-21.57 1.42,-7.91 0.3,-12.47 -0.97,-15.23 -1.41,-2.98 -4.18,-6.27 -9.7,-9.92 -12.24,-7.99 -30.97,-13.21 -55.23,-19.63l-2.09 -0.53c0,0 0,0 0,0 -21.27,-5.82 -47.4,-12.76 -66.8,-25.45 -10.6,-6.94 -20.53,-16.42 -26.72,-29.55 -6.27,-13.36 -7.54,-28.29 -4.56,-44.19 5.38,-28.51 26.73,-47.02 50.98,-56.65 9.93,-3.95 20.83,-6.64 32.25,-8.21l0 -26.35c0,-13.21 10.67,-23.88 23.88,-23.88z"/>
  </g>
  <path class="fil3" d="M337.96 919.02l1450.95 0c18.72,0 34.03,15.31 34.03,34.03 0,18.72 -15.31,34.03 -34.03,34.03l-1450.95 0c-18.72,0 -34.03,-15.31 -34.03,-34.03 0,-18.72 15.31,-34.03 34.03,-34.03zm770.78 -91.42l690.35 0c13.12,0 23.85,10.73 23.85,23.85 0,13.12 -10.73,23.85 -23.85,23.85l-690.35 0c-13.12,0 -23.85,-10.73 -23.85,-23.85 0,-13.12 10.73,-23.85 23.85,-23.85zm-780.97 0l711.84 0c13.12,0 23.84,10.72 23.84,23.84l0 0.02c0,13.12 -10.72,23.84 -23.84,23.84l-711.84 0c-13.12,0 -23.84,-10.72 -23.84,-23.84l0 -0.02c0,-13.12 10.72,-23.84 23.84,-23.84z"/>
 </g>
</svg>
