<?xml version="1.0" encoding="UTF-8"?>
<!DOCTYPE svg PUBLIC "-//W3C//DTD SVG 1.1//EN" "http://www.w3.org/Graphics/SVG/1.1/DTD/svg11.dtd">
<!-- Creator: CorelDRAW 2021 (64-Bit) -->
<svg xmlns="http://www.w3.org/2000/svg" xml:space="preserve" width="35mm" height="21.875mm" version="1.1" style="shape-rendering:geometricPrecision; text-rendering:geometricPrecision; image-rendering:optimizeQuality; fill-rule:evenodd; clip-rule:evenodd"
viewBox="0 0 3500 2187.5"
 xmlns:xlink="http://www.w3.org/1999/xlink"
 xmlns:xodm="http://www.corel.com/coreldraw/odm/2003">
 <defs>
  <style type="text/css">
   <![CDATA[
    .fil2 {fill:#7180A1}
    .fil0 {fill:#CAD9FA}
    .fil1 {fill:#7180A1;fill-rule:nonzero}
   ]]>
  </style>
 </defs>
 <g id="Layer_x0020_1">
  <metadata id="CorelCorpID_0Corel-Layer"/>
  <rect class="fil0" x="-4.91" y="5.01" width="3500.01" height="2187.5"/>
  <path class="fil1" d="M2979.52 1347.45c3.02,-6.26 9.4,-10.25 16.41,-10.25 7.01,0 13.33,3.99 16.41,10.25l36.65 75.41 81.84 12.08c6.84,1.03 12.54,5.82 14.65,12.37 2.11,6.55 0.4,13.79 -4.5,18.64l-59.39 58.76 14.02 83.05c1.14,6.83 -1.71,13.79 -7.36,17.84 -5.64,4.04 -13.11,4.56 -19.26,1.31l-73.12 -39.05 -73.12 39.05c-6.16,3.25 -13.62,2.79 -19.27,-1.31 -5.64,-4.11 -8.49,-11.01 -7.35,-17.84l14.08 -83.05 -59.39 -58.76c-4.9,-4.85 -6.68,-12.08 -4.51,-18.64 2.17,-6.55 7.81,-11.34 14.65,-12.37l81.91 -12.08 36.65 -75.41z"/>
  <path class="fil2" d="M388.89 1352.62l1877.63 0c24.83,0 45.05,20.27 45.05,45.06 0,24.79 -20.22,45.06 -45.05,45.06l-1877.63 0c-24.83,0 -45.05,-20.27 -45.05,-45.06 0,-24.79 20.22,-45.06 45.05,-45.06z"/>
  <path class="fil2" d="M388.8 1523.16l1113.22 0c24.73,0 44.96,20.27 44.96,45.06 0,24.79 -20.23,45.06 -44.96,45.06l-1113.22 0c-24.73,0 -44.96,-20.27 -44.96,-45.06 0,-24.79 20.23,-45.06 44.96,-45.06z"/>
 </g>
</svg>
