<?xml version="1.0" encoding="UTF-8"?>
<!DOCTYPE svg PUBLIC "-//W3C//DTD SVG 1.1//EN" "http://www.w3.org/Graphics/SVG/1.1/DTD/svg11.dtd">
<!-- Creator: CorelDRAW 2021 (64-Bit) -->
<svg xmlns="http://www.w3.org/2000/svg" xml:space="preserve" width="5.489mm" height="14.2866mm" version="1.1" style="shape-rendering:geometricPrecision; text-rendering:geometricPrecision; image-rendering:optimizeQuality; fill-rule:evenodd; clip-rule:evenodd"
viewBox="0 0 548.9 1428.66"
 xmlns:xlink="http://www.w3.org/1999/xlink"
 xmlns:xodm="http://www.corel.com/coreldraw/odm/2003">
 <defs>
  <style type="text/css">
   <![CDATA[
    .fil0 {fill:#CFDEFB;fill-rule:nonzero}
   ]]>
  </style>
 </defs>
 <g id="Layer_x0020_1">
  <metadata id="CorelCorpID_0Corel-Layer"/>
  <path class="fil0" d="M198.79 96.76c2.37,-11.58 11.24,-20.79 22.78,-23.7 11.55,-2.9 23.62,1.05 31.29,10.1l91.61 109.01 139.81 -14.02c11.69,-1.15 23.07,4.38 29.26,14.3 6.19,9.92 6.37,22.55 0.3,32.56l-73.46 121.4 57.51 130.97c4.71,10.79 2.9,23.42 -4.72,32.43 -7.61,9 -19.7,12.94 -31.18,10.14l-136.63 -34 -104.26 94.61c-8.79,7.9 -21.28,10.25 -32.27,5.83 -11,-4.43 -18.55,-14.6 -19.51,-26.34l-11.22 -142.61 -122.18 -72.17c-10.08,-5.95 -15.99,-17.14 -15.14,-28.84 0.86,-11.69 8.16,-21.91 19,-26.44l129.9 -53.84 29.11 -139.39z"/>
  <path class="fil0" d="M316.96 961.54c6.39,-6.97 16.26,-9.65 25.37,-6.9 9.12,2.75 15.78,10.42 17.32,19.78l18.07 112.43 101.68 47.83c8.49,4.02 14.02,12.48 14.19,21.83 0.17,9.35 -4.89,18.09 -13.16,22.47l-100.29 53.1 -14.35 113.48c-1.2,9.34 -7.63,17.27 -16.56,20.32 -8.92,3.04 -18.83,0.78 -25.56,-5.86l-79.77 -79.46 -110.4 22.07c-9.28,1.81 -18.81,-1.71 -24.54,-9.26 -5.73,-7.55 -6.73,-17.63 -2.56,-26.08l50.89 -102.46 -54.17 -99.71c-4.47,-8.22 -3.93,-18.33 1.46,-26 5.39,-7.68 14.61,-11.69 23.9,-10.34l111.24 16.43 77.24 -83.67z"/>
 </g>
</svg>
